<?xml version="1.0" encoding="UTF-8"?>
<svg id="Calque_2" data-name="Calque 2" xmlns="http://www.w3.org/2000/svg" viewBox="0 0 658.08 89">
  <defs>
    <style>
      .cls-1 {
        fill: #fff;
      }

      .cls-2 {
        fill: #bfa134;
      }
    </style>
  </defs>
  <g id="Calque_1-2" data-name="Calque 1">
    <g>
      <g>
        <path class="cls-1" d="M119.91,33.53v1.28c-1.45.04-2.55.2-3.3.48-.75.28-1.25.79-1.5,1.54-.26.75-.38,1.91-.38,3.49v31.74c0,1.54.13,2.69.38,3.46s.76,1.27,1.5,1.5c.75.24,1.85.35,3.3.35h4.67c2,0,3.64-.21,4.9-.64,1.26-.43,2.26-1.1,3.01-2.02.75-.92,1.31-2.14,1.7-3.68.38-1.54.68-3.41.9-5.63h1.47c-.13,1.32-.19,3.07-.19,5.25,0,.81.03,1.97.1,3.49.06,1.52.18,3.08.35,4.7-2.18-.08-4.63-.14-7.36-.16-2.73-.02-5.16-.03-7.3-.03h-3.62c-1.47,0-3.06.01-4.77.03-1.71.02-3.43.04-5.18.06-1.75.02-3.41.05-4.99.1v-1.28c1.45-.09,2.55-.26,3.3-.51.75-.26,1.25-.77,1.5-1.54.26-.77.38-1.92.38-3.46v-31.74c0-1.58-.13-2.74-.38-3.49-.26-.75-.76-1.26-1.5-1.54-.75-.28-1.85-.44-3.3-.48v-1.28c.9.04,2.07.09,3.52.13,1.45.04,3.01.06,4.67.06,1.49,0,2.98-.02,4.45-.06,1.47-.04,2.7-.08,3.68-.13Z"/>
        <path class="cls-1" d="M173.15,33.53c-.17,1.49-.29,2.94-.35,4.35s-.1,2.48-.1,3.2c0,.77.02,1.5.06,2.21.04.7.08,1.29.13,1.76h-1.47c-.26-2.52-.62-4.51-1.09-5.98-.47-1.47-1.27-2.52-2.4-3.14-1.13-.62-2.83-.93-5.09-.93h-5.31c-1.45,0-2.55.12-3.3.35-.75.23-1.25.73-1.5,1.47-.26.75-.38,1.91-.38,3.49v31.74c0,1.54.13,2.69.38,3.46s.76,1.27,1.5,1.5c.75.24,1.85.35,3.3.35h4.67c2.69,0,4.72-.36,6.11-1.09,1.39-.73,2.39-1.91,3.01-3.55.62-1.64,1.08-3.87,1.38-6.69h1.47c-.13,1.15-.19,2.69-.19,4.61,0,.81.03,1.97.1,3.49.06,1.52.18,3.08.35,4.7-2.18-.08-4.63-.14-7.36-.16-2.73-.02-5.16-.03-7.3-.03h-3.62c-1.47,0-3.06.01-4.77.03-1.71.02-3.43.04-5.18.06-1.75.02-3.41.05-4.99.1v-1.28c1.45-.09,2.55-.26,3.3-.51.75-.26,1.25-.77,1.5-1.54.26-.77.38-1.92.38-3.46v-31.74c0-1.58-.13-2.74-.38-3.49-.26-.75-.76-1.26-1.5-1.54-.75-.28-1.85-.44-3.3-.48v-1.28c1.58.04,3.24.08,4.99.1,1.75.02,3.48.04,5.18.06,1.71.02,3.3.03,4.77.03h3.62c1.96,0,4.19,0,6.69-.03,2.5-.02,4.73-.07,6.69-.16ZM162.15,55.42v1.28h-11.71v-1.28h11.71ZM164,46.97c-.17,2.43-.25,4.29-.22,5.57.02,1.28.03,2.45.03,3.52s.02,2.24.06,3.52c.04,1.28.15,3.14.32,5.57h-1.47c-.17-1.37-.37-2.7-.61-4-.23-1.3-.75-2.37-1.54-3.2-.79-.83-2.12-1.25-4-1.25v-1.28c1.41,0,2.49-.29,3.23-.86.75-.58,1.29-1.31,1.63-2.21.34-.9.58-1.82.7-2.78.13-.96.26-1.82.38-2.59h1.47Z"/>
        <path class="cls-1" d="M217.19,32.63c2.82,0,5.13.42,6.94,1.25,1.81.83,3.42,1.8,4.83,2.91.85.64,1.5.71,1.95.22.45-.49.76-1.65.93-3.49h1.47c-.09,1.58-.15,3.5-.19,5.76-.04,2.26-.06,5.25-.06,8.96h-1.47c-.3-1.83-.58-3.3-.83-4.38s-.57-2.02-.93-2.78c-.36-.77-.84-1.54-1.44-2.3-1.32-1.75-2.99-3.02-4.99-3.81-2.01-.79-4.12-1.18-6.34-1.18-2.09,0-3.98.52-5.66,1.57-1.69,1.05-3.14,2.55-4.35,4.51-1.22,1.96-2.16,4.33-2.82,7.1-.66,2.77-.99,5.89-.99,9.34s.36,6.75,1.09,9.5c.73,2.75,1.74,5.07,3.04,6.94,1.3,1.88,2.84,3.3,4.61,4.26,1.77.96,3.68,1.44,5.73,1.44,1.92,0,3.93-.38,6.02-1.15,2.09-.77,3.73-2,4.93-3.71.94-1.24,1.59-2.58,1.95-4.03.36-1.45.69-3.48.99-6.08h1.47c0,3.88.02,7.01.06,9.38.04,2.37.11,4.36.19,5.98h-1.47c-.17-1.83-.46-2.99-.86-3.46-.41-.47-1.08-.4-2.02.19-1.58,1.11-3.25,2.08-5.02,2.91-1.77.83-4.04,1.25-6.82,1.25-4.05,0-7.61-.92-10.66-2.75-3.05-1.83-5.42-4.48-7.1-7.94-1.69-3.46-2.53-7.62-2.53-12.48s.87-8.96,2.62-12.54c1.75-3.58,4.15-6.38,7.2-8.38,3.05-2,6.56-3.01,10.53-3.01Z"/>
        <path class="cls-1" d="M256.48,33.53v1.28c-1.45.04-2.55.2-3.3.48-.75.28-1.25.79-1.5,1.54-.26.75-.38,1.91-.38,3.49v31.74c0,1.54.13,2.69.38,3.46s.76,1.27,1.5,1.5c.75.24,1.85.35,3.3.35h4.67c2,0,3.64-.21,4.9-.64,1.26-.43,2.26-1.1,3.01-2.02.75-.92,1.31-2.14,1.7-3.68.38-1.54.68-3.41.9-5.63h1.47c-.13,1.32-.19,3.07-.19,5.25,0,.81.03,1.97.1,3.49.06,1.52.18,3.08.35,4.7-2.18-.08-4.63-.14-7.36-.16-2.73-.02-5.16-.03-7.3-.03h-3.62c-1.47,0-3.06.01-4.77.03-1.71.02-3.43.04-5.18.06-1.75.02-3.41.05-4.99.1v-1.28c1.45-.09,2.55-.26,3.3-.51.75-.26,1.25-.77,1.5-1.54.26-.77.38-1.92.38-3.46v-31.74c0-1.58-.13-2.74-.38-3.49-.26-.75-.76-1.26-1.5-1.54-.75-.28-1.85-.44-3.3-.48v-1.28c.9.04,2.07.09,3.52.13,1.45.04,3.01.06,4.67.06,1.49,0,2.98-.02,4.45-.06,1.47-.04,2.7-.08,3.68-.13Z"/>
        <path class="cls-1" d="M295.78,33.21l15.62,40.26c.64,1.62,1.37,2.7,2.18,3.23.81.53,1.56.82,2.24.86v1.28c-.85-.08-1.9-.14-3.13-.16-1.24-.02-2.48-.03-3.71-.03-1.66,0-3.22.01-4.67.03-1.45.02-2.62.08-3.52.16v-1.28c2.18-.09,3.56-.46,4.16-1.12.6-.66.47-2.08-.38-4.26l-11.9-31.81,1.02-.83-11.14,28.93c-.68,1.71-1.09,3.15-1.22,4.32-.13,1.17-.01,2.1.35,2.78.36.68.98,1.17,1.86,1.47.87.3,1.97.47,3.3.51v1.28c-1.19-.08-2.44-.14-3.74-.16-1.3-.02-2.51-.03-3.62-.03s-1.97.01-2.72.03c-.75.02-1.44.08-2.08.16v-1.28c.85-.21,1.73-.71,2.62-1.5.9-.79,1.71-2.14,2.43-4.06l15.04-38.78h1.02ZM303.59,60.41v1.28h-19.07l.64-1.28h18.43Z"/>
        <path class="cls-1" d="M334.43,33.53v1.28c-1.45.04-2.55.2-3.3.48-.75.28-1.25.79-1.5,1.54-.26.75-.38,1.91-.38,3.49v31.74c0,1.54.13,2.69.38,3.46s.76,1.28,1.5,1.54c.75.26,1.84.43,3.3.51v1.28c-.98-.08-2.21-.14-3.68-.16-1.47-.02-2.96-.03-4.45-.03-1.66,0-3.22.01-4.67.03-1.45.02-2.62.08-3.52.16v-1.28c1.45-.09,2.55-.26,3.3-.51.75-.26,1.25-.77,1.5-1.54s.38-1.92.38-3.46v-31.74c0-1.58-.13-2.74-.38-3.49-.26-.75-.76-1.26-1.5-1.54-.75-.28-1.85-.44-3.3-.48v-1.28c.9.04,2.07.09,3.52.13,1.45.04,3.01.06,4.67.06,1.49,0,2.98-.02,4.45-.06,1.47-.04,2.7-.08,3.68-.13Z"/>
        <path class="cls-1" d="M339.81,33.53c.9.04,2.07.09,3.52.13,1.45.04,2.88.06,4.29.06,2,0,3.92-.02,5.76-.06,1.83-.04,3.14-.06,3.9-.06,3.46,0,6.33.49,8.61,1.47,2.28.98,3.99,2.31,5.12,4,1.13,1.69,1.7,3.57,1.7,5.66,0,1.28-.26,2.65-.77,4.1-.51,1.45-1.4,2.82-2.66,4.1-1.26,1.28-2.98,2.34-5.15,3.17s-4.93,1.25-8.26,1.25h-6.14v-1.28h5.5c3.03,0,5.34-.48,6.94-1.44,1.6-.96,2.69-2.24,3.26-3.84s.86-3.38.86-5.34c0-3.37-.8-5.98-2.4-7.84-1.6-1.86-4.34-2.78-8.22-2.78-1.96,0-3.24.36-3.84,1.09-.6.73-.9,2.2-.9,4.42v31.74c0,1.54.13,2.69.38,3.46s.76,1.28,1.5,1.54c.75.26,1.84.43,3.3.51v1.28c-.98-.08-2.21-.14-3.68-.16-1.47-.02-2.96-.03-4.45-.03-1.66,0-3.22.01-4.67.03-1.45.02-2.62.08-3.52.16v-1.28c1.45-.09,2.55-.26,3.3-.51.75-.26,1.25-.77,1.5-1.54s.38-1.92.38-3.46v-31.74c0-1.58-.13-2.74-.38-3.49-.26-.75-.76-1.26-1.5-1.54-.75-.28-1.85-.44-3.3-.48v-1.28ZM349.98,56.25c2.3.09,4.12.18,5.44.29,1.32.11,2.4.2,3.23.29.83.09,1.63.19,2.4.32,2.86.47,4.92,1.33,6.18,2.59,1.26,1.26,2.19,3.21,2.78,5.86l1.6,6.53c.43,1.88.86,3.23,1.31,4.06.45.83,1.14,1.23,2.08,1.18.73-.04,1.33-.28,1.82-.7.49-.43,1.01-1,1.57-1.73l.96.7c-.9,1.32-1.82,2.34-2.78,3.04-.96.7-2.32,1.06-4.06,1.06-1.58,0-2.97-.47-4.16-1.41-1.2-.94-2.09-2.77-2.69-5.5l-1.41-6.4c-.38-1.83-.82-3.42-1.31-4.77-.49-1.34-1.17-2.4-2.05-3.17-.88-.77-2.17-1.15-3.87-1.15h-6.91l-.13-1.09Z"/>
        <path class="cls-1" d="M414.69,33.53c7.64,0,13.31,1.91,17.02,5.73,3.71,3.82,5.57,9.29,5.57,16.42,0,4.65-.91,8.71-2.72,12.19-1.81,3.48-4.45,6.18-7.9,8.1s-7.64,2.88-12.54,2.88c-.64,0-1.49-.02-2.56-.06-1.07-.04-2.17-.07-3.3-.1-1.13-.02-2.17-.03-3.1-.03-1.49,0-2.97.01-4.42.03-1.45.02-2.62.08-3.52.16v-1.28c1.45-.09,2.55-.26,3.3-.51.75-.26,1.25-.77,1.5-1.54s.38-1.92.38-3.46v-31.74c0-1.58-.13-2.74-.38-3.49-.26-.75-.76-1.26-1.5-1.54-.75-.28-1.85-.44-3.3-.48v-1.28c.9.04,2.07.1,3.52.16,1.45.06,2.88.07,4.29.03,1.49-.04,3.18-.08,5.06-.13,1.88-.04,3.41-.06,4.61-.06ZM413.09,34.68c-1.96,0-3.24.36-3.84,1.09-.6.73-.9,2.2-.9,4.42v32c0,2.22.31,3.69.93,4.42.62.73,1.91,1.09,3.87,1.09,4.65,0,8.26-.84,10.82-2.53,2.56-1.69,4.35-4.15,5.38-7.39,1.02-3.24,1.54-7.19,1.54-11.84s-.57-8.74-1.7-11.87c-1.13-3.14-2.99-5.48-5.57-7.04-2.58-1.56-6.09-2.34-10.53-2.34Z"/>
        <path class="cls-1" d="M475.42,33.53c-.17,1.49-.29,2.94-.35,4.35-.06,1.41-.1,2.48-.1,3.2,0,.77.02,1.5.06,2.21.04.7.08,1.29.13,1.76h-1.47c-.26-2.52-.62-4.51-1.09-5.98-.47-1.47-1.27-2.52-2.4-3.14-1.13-.62-2.83-.93-5.09-.93h-5.31c-1.45,0-2.55.12-3.3.35-.75.23-1.25.73-1.5,1.47-.26.75-.38,1.91-.38,3.49v31.74c0,1.54.13,2.69.38,3.46s.76,1.27,1.5,1.5c.75.24,1.84.35,3.3.35h4.67c2.69,0,4.73-.36,6.11-1.09,1.39-.73,2.39-1.91,3.01-3.55.62-1.64,1.08-3.87,1.38-6.69h1.47c-.13,1.15-.19,2.69-.19,4.61,0,.81.03,1.97.1,3.49.06,1.52.18,3.08.35,4.7-2.18-.08-4.63-.14-7.36-.16-2.73-.02-5.16-.03-7.3-.03h-3.62c-1.47,0-3.06.01-4.77.03-1.71.02-3.44.04-5.18.06-1.75.02-3.41.05-4.99.1v-1.28c1.45-.09,2.55-.26,3.3-.51.75-.26,1.25-.77,1.5-1.54s.38-1.92.38-3.46v-31.74c0-1.58-.13-2.74-.38-3.49-.26-.75-.76-1.26-1.5-1.54-.75-.28-1.85-.44-3.3-.48v-1.28c1.58.04,3.24.08,4.99.1,1.75.02,3.48.04,5.18.06,1.71.02,3.3.03,4.77.03h3.62c1.96,0,4.19,0,6.69-.03,2.5-.02,4.73-.07,6.69-.16ZM464.41,55.42v1.28h-11.71v-1.28h11.71ZM466.27,46.97c-.17,2.43-.25,4.29-.22,5.57.02,1.28.03,2.45.03,3.52s.02,2.24.06,3.52c.04,1.28.15,3.14.32,5.57h-1.47c-.17-1.37-.37-2.7-.61-4-.24-1.3-.75-2.37-1.54-3.2-.79-.83-2.12-1.25-4-1.25v-1.28c1.41,0,2.49-.29,3.23-.86.75-.58,1.29-1.31,1.63-2.21.34-.9.58-1.82.7-2.78.13-.96.26-1.82.38-2.59h1.47Z"/>
        <path class="cls-2" d="M514.72,33.53v1.28c-1.45.04-2.55.2-3.3.48-.75.28-1.25.79-1.5,1.54-.26.75-.38,1.91-.38,3.49v31.74c0,1.54.13,2.69.38,3.46s.76,1.27,1.5,1.5c.75.24,1.84.35,3.3.35h4.67c2,0,3.64-.21,4.9-.64,1.26-.43,2.26-1.1,3.01-2.02.75-.92,1.31-2.14,1.7-3.68s.68-3.41.9-5.63h1.47c-.13,1.32-.19,3.07-.19,5.25,0,.81.03,1.97.1,3.49.06,1.52.18,3.08.35,4.7-2.18-.08-4.63-.14-7.36-.16-2.73-.02-5.16-.03-7.3-.03h-3.62c-1.47,0-3.06.01-4.77.03-1.71.02-3.44.04-5.18.06-1.75.02-3.41.05-4.99.1v-1.28c1.45-.09,2.55-.26,3.3-.51.75-.26,1.25-.77,1.5-1.54s.38-1.92.38-3.46v-31.74c0-1.58-.13-2.74-.38-3.49-.26-.75-.76-1.26-1.5-1.54-.75-.28-1.85-.44-3.3-.48v-1.28c.9.04,2.07.09,3.52.13,1.45.04,3.01.06,4.67.06,1.49,0,2.98-.02,4.45-.06,1.47-.04,2.7-.08,3.68-.13Z"/>
        <path class="cls-2" d="M575.26,33.53v1.28c-1.45.04-2.55.26-3.3.64-.75.38-1.25,1-1.5,1.86-.26.85-.38,2.07-.38,3.65v19.26c0,2.99-.19,5.59-.58,7.81-.38,2.22-1.07,4.14-2.05,5.76-1.07,1.79-2.62,3.23-4.67,4.32-2.05,1.09-4.4,1.63-7.04,1.63-2.05,0-4-.25-5.86-.74-1.86-.49-3.49-1.4-4.9-2.72-1.24-1.19-2.21-2.45-2.91-3.78-.7-1.32-1.18-2.94-1.44-4.86-.26-1.92-.38-4.33-.38-7.23v-20.1c0-1.58-.13-2.74-.38-3.49-.26-.75-.76-1.26-1.5-1.54-.75-.28-1.85-.44-3.3-.48v-1.28c.9.04,2.07.09,3.52.13,1.45.04,3.01.06,4.67.06,1.49,0,2.98-.02,4.45-.06,1.47-.04,2.7-.08,3.68-.13v1.28c-1.45.04-2.55.2-3.3.48-.75.28-1.25.79-1.5,1.54-.26.75-.38,1.91-.38,3.49v21.18c0,2.18.11,4.24.32,6.18.21,1.94.65,3.65,1.31,5.12.66,1.47,1.67,2.62,3.04,3.46,1.37.83,3.18,1.25,5.44,1.25,3.24,0,5.75-.71,7.52-2.14,1.77-1.43,3.01-3.4,3.71-5.92.7-2.52,1.06-5.35,1.06-8.51v-19.97c0-1.58-.18-2.79-.54-3.65-.36-.85-.97-1.47-1.82-1.86-.85-.38-2.01-.6-3.46-.64v-1.28c.77.04,1.78.09,3.04.13,1.26.04,2.42.06,3.49.06s2.21-.02,3.3-.06c1.09-.04,1.97-.08,2.66-.13Z"/>
        <path class="cls-2" d="M619.87,33.53v1.28c-1.45.04-2.55.26-3.3.64-.75.38-1.25,1-1.5,1.86-.26.85-.38,2.07-.38,3.65v38.21h-1.47l-26.88-41.54v33.79c0,1.54.14,2.74.42,3.62.28.88.83,1.49,1.66,1.86.83.36,2.08.59,3.74.67v1.28c-.77-.08-1.77-.14-3.01-.16-1.24-.02-2.41-.03-3.52-.03s-2.14.01-3.23.03c-1.09.02-2,.08-2.72.16v-1.28c1.45-.09,2.55-.31,3.3-.67.75-.36,1.25-.98,1.5-1.86.26-.87.38-2.08.38-3.62v-31.1c0-1.58-.13-2.74-.38-3.49-.26-.75-.76-1.26-1.5-1.54-.75-.28-1.85-.44-3.3-.48v-1.28c.72.04,1.63.09,2.72.13,1.09.04,2.17.06,3.23.06.94,0,1.83-.02,2.69-.06.85-.04,1.62-.08,2.3-.13l22.59,34.82v-27.39c0-1.58-.14-2.79-.42-3.65-.28-.85-.83-1.47-1.66-1.86-.83-.38-2.08-.6-3.74-.64v-1.28c.77.04,1.78.09,3.04.13,1.26.04,2.42.06,3.49.06s2.21-.02,3.3-.06c1.09-.04,1.97-.08,2.66-.13Z"/>
        <path class="cls-2" d="M656.8,33.53c-.17,1.49-.29,2.94-.35,4.35-.06,1.41-.1,2.48-.1,3.2,0,.77.02,1.5.06,2.21.04.7.08,1.29.13,1.76h-1.47c-.26-2.52-.62-4.51-1.09-5.98-.47-1.47-1.27-2.52-2.4-3.14-1.13-.62-2.83-.93-5.09-.93h-5.31c-1.45,0-2.55.12-3.3.35-.75.23-1.25.73-1.5,1.47-.26.75-.38,1.91-.38,3.49v31.74c0,1.54.13,2.69.38,3.46s.76,1.27,1.5,1.5c.75.24,1.84.35,3.3.35h4.67c2.69,0,4.73-.36,6.11-1.09,1.39-.73,2.39-1.91,3.01-3.55.62-1.64,1.08-3.87,1.38-6.69h1.47c-.13,1.15-.19,2.69-.19,4.61,0,.81.03,1.97.1,3.49.06,1.52.18,3.08.35,4.7-2.18-.08-4.63-.14-7.36-.16-2.73-.02-5.16-.03-7.3-.03h-3.62c-1.47,0-3.06.01-4.77.03-1.71.02-3.44.04-5.18.06-1.75.02-3.41.05-4.99.1v-1.28c1.45-.09,2.55-.26,3.3-.51.75-.26,1.25-.77,1.5-1.54s.38-1.92.38-3.46v-31.74c0-1.58-.13-2.74-.38-3.49-.26-.75-.76-1.26-1.5-1.54-.75-.28-1.85-.44-3.3-.48v-1.28c1.58.04,3.24.08,4.99.1,1.75.02,3.48.04,5.18.06,1.71.02,3.3.03,4.77.03h3.62c1.96,0,4.19,0,6.69-.03,2.5-.02,4.73-.07,6.69-.16ZM645.79,55.42v1.28h-11.71v-1.28h11.71ZM647.64,46.97c-.17,2.43-.25,4.29-.22,5.57.02,1.28.03,2.45.03,3.52s.02,2.24.06,3.52c.04,1.28.15,3.14.32,5.57h-1.47c-.17-1.37-.37-2.7-.61-4-.24-1.3-.75-2.37-1.54-3.2-.79-.83-2.12-1.25-4-1.25v-1.28c1.41,0,2.49-.29,3.23-.86.75-.58,1.29-1.31,1.63-2.21.34-.9.58-1.82.7-2.78.13-.96.26-1.82.38-2.59h1.47Z"/>
      </g>
      <path class="cls-2" d="M44.5,89c24.58,0,44.5-19.92,44.5-44.5,0-2.06-3.09-2.4-4.15-.64-5.07,8.38-14.27,13.99-24.77,13.99-15.98,0-28.92-12.95-28.92-28.92,0-10.51,5.6-19.71,13.99-24.77,1.76-1.06,1.42-4.15-.64-4.15C19.92,0,0,19.92,0,44.5s19.92,44.5,44.5,44.5Z"/>
    </g>
  </g>
</svg>