<?xml version="1.0" encoding="UTF-8"?>
<svg id="Calque_2" data-name="Calque 2" xmlns="http://www.w3.org/2000/svg" viewBox="0 0 719 127.62">
  <defs>
    <style>
      .cls-1 {
        fill: #1d1d1b;
      }

      .cls-2 {
        fill: #fff;
      }

      .cls-3 {
        fill: #ea5b0c;
      }

      .cls-4 {
        font-family: BritannicBold, 'Britannic Bold';
        font-size: 64px;
      }

      .cls-5 {
        fill: #e8481d;
      }
    </style>
  </defs>
  <g id="Calque_1-2" data-name="Calque 1">
    <g>
      <path class="cls-5" d="M1.07,27.13c2.84,6.29,8.32,21.65,15.97,32.71,7.65,11.06,15.81,9.88,24.05,12.56l5.92,3.06,40.49,46.57,8.19-7.12.04-.04C88.44,106.49,22.65,30.83,11.53,18.03c-5.2-5.98-14.72-.32-10.47,9.1Z"/>
      <path class="cls-5" d="M108.71,26.76l-14.13,16.25c-.91,1.04-2.48,1.15-3.52.24l-.5-.43c-1.03-.9-1.15-2.47-.24-3.51l14.19-16.33c2.33-2.68,1.23-5.05-.51-6.55-1.73-1.5-4.23-2.27-6.56.41l-14.19,16.33c-.9,1.04-2.48,1.15-3.51.24l-.5-.43c-1.04-.9-1.15-2.48-.25-3.51l14.13-16.25c4.17-4.8-2.8-10.58-6.88-5.89-4.88,5.61-13.49,15.52-13.49,15.52-7.53,8.6-7.41,12.62-6.35,18.26.86,4.55,2.13,7.82-2.54,13.19l-6.9,7.93,7.23,8.31,7.9-9.09c4.67-5.37,8.09-4.57,12.71-4.35,5.74.27,9.74-.17,17.2-8.82,0,0,8.61-9.91,13.49-15.52,4.07-4.69-2.62-10.79-6.79-5.99Z"/>
      <polygon class="cls-5" points="42.36 79.02 11.2 114.87 19.43 122.03 49.96 86.92 43.67 79.7 42.36 79.02"/>
    </g>
    <text class="cls-4" transform="translate(123.93 85.48)"><tspan class="cls-2" x="0" y="0">La Bonne</tspan><tspan class="cls-1" x="264.75" y="0"> </tspan><tspan class="cls-3" x="283.94" y="0">Fourchette</tspan></text>
  </g>
</svg>